<svg width="32" height="32" viewBox="0 0 32 32" fill="none" xmlns="http://www.w3.org/2000/svg"><circle cx="12" cy="13" r="1" fill="currentColor"/><circle cx="16" cy="13" r="1" fill="currentColor"/><circle cx="20" cy="13" r="1" fill="currentColor"/><circle cx="12" cy="17" r="1" fill="currentColor"/><circle cx="16" cy="17" r="1" fill="currentColor"/><circle cx="20" cy="17" r="1" fill="currentColor"/><circle cx="12" cy="21" r="1" fill="currentColor"/><circle cx="16" cy="21" r="1" fill="currentColor"/><circle cx="16" cy="25" r="1" fill="currentColor"/><circle cx="20" cy="21" r="1" fill="currentColor"/><path d="M25 3H7a1 1 0 0 0-1 1v24a1 1 0 0 0 1 1h18a1 1 0 0 0 1-1V4a1 1 0 0 0-1-1Z" stroke="currentColor" stroke-width="1.5" stroke-linecap="round" stroke-linejoin="round"/><mask id="a" fill="currentColor"><rect x="9" y="6" width="14" height="4" rx="1"/></mask><rect x="9" y="6" width="14" height="4" rx="1" stroke="currentColor" stroke-width="3" mask="url(#a)"/></svg>