<svg width="190" height="36" viewBox="0 0 190 36" fill="none" xmlns="http://www.w3.org/2000/svg">
<path d="M70.7509 23.6931V20.0069H65.5518C60.0892 20.0069 58.1811 21.1917 58.1811 24.679C58.1811 28.3652 59.9575 29.5501 64.894 29.5501C69.1063 29.5501 70.7509 27.4439 70.7509 23.6931ZM50.6123 25.0742C50.6123 17.4409 54.8238 13.9518 65.749 13.9518H70.6855V11.3859C70.6855 8.49012 69.9605 6.51481 65.749 6.51481C61.3395 6.51481 60.2873 7.50246 59.5631 10.6617L51.9943 9.41146C53.31 2.63316 56.7328 0 66.0125 0C75.7529 0 78.3852 4.14691 78.3852 11.5167V35.4725H70.6855V31.7217C68.9746 34.2231 66.7367 35.934 61.801 35.934C53.9697 35.934 50.6123 32.3795 50.6123 25.0742Z" fill="#28BDB8"/>
<path d="M80.9254 22.6406V13.2954C80.9254 5.72666 84.6108 0.00144202 94.8773 0.00144202C105.21 0.00144202 107.777 4.34465 108.567 11.2547L100.933 12.4395C100.538 8.68874 99.3531 6.77974 94.8773 6.77974C90.3369 6.77974 88.7568 9.34658 88.7568 13.0319V23.1012C88.7568 26.7212 90.3369 29.3534 94.8773 29.3534C99.8138 29.3534 100.406 27.5108 100.998 23.9563L108.238 25.0757C107.448 30.8009 105.21 36 94.8773 36C84.4799 36 80.9254 30.0767 80.9254 22.6406Z" fill="#28BDB8"/>
<path d="M130.966 23.6931V20.0069H125.767C120.304 20.0069 118.395 21.1917 118.395 24.679C118.395 28.3652 120.173 29.5501 125.109 29.5501C129.321 29.5501 130.966 27.4439 130.966 23.6931ZM110.828 25.0742C110.828 17.4409 115.04 13.9518 125.965 13.9518H130.901V11.3859C130.901 8.49012 130.177 6.51481 125.965 6.51481C121.555 6.51481 120.502 7.50246 119.778 10.6617L112.21 9.41146C113.526 2.63316 116.948 0 126.229 0C135.968 0 138.601 4.14691 138.601 11.5167V35.4725H130.901V31.7217C129.189 34.2231 126.952 35.934 122.016 35.934C114.184 35.934 110.828 32.3795 110.828 25.0742Z" fill="#28BDB8"/>
<path d="M7.8314 4.54129V0.460692H1.52588e-05V35.4725H7.8314V11.7811V11.7785V4.54129Z" fill="#28BDB8"/>
<path d="M37.25 0C32.379 0 29.0897 1.57919 26.7855 4.93562C25.5352 1.77725 22.6395 0 17.1769 0C14.4066 0 12.1643 0.638396 10.372 1.90723V7.8924C11.4941 7.26108 12.8743 6.91005 14.2811 6.91005C18.4271 6.91005 20.0726 8.81904 20.0726 11.5167V35.4725H27.9049V11.9783C27.9049 8.88448 30.9978 6.91005 34.3543 6.91005C38.5003 6.91005 40.1449 8.81904 40.1449 11.5167V35.4725H47.9772V10.3982C47.9772 4.6067 45.8056 0 37.25 0Z" fill="#28BDB8"/>
<path d="M181.286 31.3928H181.287V35.4725H189.119V0.460704H181.287V24.1529C181.287 24.1538 181.286 24.1547 181.286 24.1556V31.3928Z" fill="#26255D"/>
<path d="M151.87 35.934C156.74 35.934 160.03 34.3549 162.334 30.9975C163.584 34.1568 166.48 35.934 171.943 35.934C174.712 35.934 176.954 35.2956 178.748 34.0268V28.0416C177.625 28.6721 176.244 29.024 174.838 29.024C170.692 29.024 169.047 27.115 169.047 24.4173V0.460692H161.215V23.9557C161.215 27.0496 158.122 29.024 154.765 29.024C150.619 29.024 148.975 27.115 148.975 24.4173V0.460692H141.141V25.5358C141.141 31.3273 143.314 35.934 151.87 35.934Z" fill="#26255D"/>
</svg>
