<svg width="20" height="20" viewBox="0 0 20 20" fill="none" xmlns="http://www.w3.org/2000/svg"><path d="M5 17.5h-.75a.75.75 0 0 0 1.085.67L5 17.5Zm5-2.5.335-.67a.75.75 0 0 0-.67 0L10 15Zm5 2.5-.335.67a.75.75 0 0 0 1.085-.67H15ZM4.25 4v13.5h1.5V4h-1.5Zm1.085 14.17 5-2.5-.67-1.34-5 2.5.67 1.34Zm4.33-2.5 5 2.5.67-1.34-5-2.5-.67 1.34Zm6.085 1.83V4h-1.5v13.5h1.5ZM13 1.25H7v1.5h6v-1.5ZM15.75 4A2.75 2.75 0 0 0 13 1.25v1.5c.69 0 1.25.56 1.25 1.25h1.5Zm-10 0c0-.69.56-1.25 1.25-1.25v-1.5A2.75 2.75 0 0 0 4.25 4h1.5Z" fill="currentColor"/></svg>