<svg width="32" height="32" viewBox="0 0 32 32" fill="none" xmlns="http://www.w3.org/2000/svg">
<path d="M5 12V28M5 12H3M5 12H7M5 28H3M5 28H7" stroke="#252929" stroke-width="1.5" stroke-linecap="round" stroke-linejoin="round"/>
<path d="M29 6L11 6M29 6L29 4M29 6L29 8M11 6L11 4M11 6L11 8" stroke="#252929" stroke-width="1.5" stroke-linecap="round" stroke-linejoin="round"/>
<path d="M11 16.5L10.3146 16.1954C10.272 16.2913 10.25 16.3951 10.25 16.5H11ZM29 16.5H29.75C29.75 16.3951 29.728 16.2913 29.6854 16.1954L29 16.5ZM19.7428 21.6543L20.1286 22.2975L19.7428 21.6543ZM20.2572 21.6543L20.6431 21.0112L20.2572 21.6543ZM18.2572 22.5457L18.6431 23.1888L18.2572 22.5457ZM27.2639 12.5939L26.5786 12.8985L27.2639 12.5939ZM12.7361 12.5939L12.0507 12.2893L12.7361 12.5939ZM12.0507 12.2893L10.3146 16.1954L11.6854 16.8046L13.4214 12.8985L12.0507 12.2893ZM10.25 16.5V27H11.75V16.5H10.25ZM12 28.75H28V27.25H12V28.75ZM29.75 27V16.5H28.25V27H29.75ZM29.6854 16.1954L27.9493 12.2893L26.5786 12.8985L28.3146 16.8046L29.6854 16.1954ZM26.3501 11.25H13.6499V12.75H26.3501V11.25ZM11 17.25H17.5V15.75H11V17.25ZM16.75 16.5V22.1169H18.25V16.5H16.75ZM18.6431 23.1888L20.1286 22.2975L19.3569 21.0112L17.8714 21.9025L18.6431 23.1888ZM19.8714 22.2975L21.3569 23.1888L22.1286 21.9025L20.6431 21.0112L19.8714 22.2975ZM17.5 17.25H22.5V15.75H17.5V17.25ZM22.5 17.25H29V15.75H22.5V17.25ZM23.25 22.1169V16.5H21.75V22.1169H23.25ZM21.3569 23.1888C22.19 23.6887 23.25 23.0885 23.25 22.1169H21.75C21.75 21.9226 21.962 21.8026 22.1286 21.9025L21.3569 23.1888ZM20.1286 22.2975C20.0495 22.345 19.9505 22.345 19.8714 22.2975L20.6431 21.0112C20.2473 20.7737 19.7527 20.7737 19.3569 21.0112L20.1286 22.2975ZM28 28.75C28.9665 28.75 29.75 27.9665 29.75 27H28.25C28.25 27.1381 28.1381 27.25 28 27.25V28.75ZM16.75 22.1169C16.75 23.0885 17.81 23.6887 18.6431 23.1888L17.8714 21.9025C18.038 21.8026 18.25 21.9226 18.25 22.1169H16.75ZM10.25 27C10.25 27.9665 11.0335 28.75 12 28.75V27.25C11.8619 27.25 11.75 27.1381 11.75 27H10.25ZM27.9493 12.2893C27.6684 11.6573 27.0417 11.25 26.3501 11.25V12.75C26.4489 12.75 26.5385 12.8082 26.5786 12.8985L27.9493 12.2893ZM13.4214 12.8985C13.4615 12.8082 13.5511 12.75 13.6499 12.75V11.25C12.9583 11.25 12.3316 11.6573 12.0507 12.2893L13.4214 12.8985Z" fill="#252929"/>
</svg>
