<svg width="32" height="32" viewBox="0 0 32 32" fill="none" xmlns="http://www.w3.org/2000/svg">
<path fill-rule="evenodd" clip-rule="evenodd" d="M6.89443 5.8882C6.93678 5.8035 7.02334 5.75 7.11803 5.75H24.882C24.9767 5.75 25.0632 5.8035 25.1056 5.8882L27.7865 11.25H20H12H7.29933C7.03997 10.8016 6.55521 10.5 6 10.5C5.17157 10.5 4.5 11.1716 4.5 12C4.5 12.8284 5.17157 13.5 6 13.5C6.55521 13.5 7.03997 13.1984 7.29933 12.75H11.25V18.5858C11.25 20.1449 13.135 20.9257 14.2374 19.8232L15.5303 18.5303C15.8232 18.2374 15.8232 17.7626 15.5303 17.4697C15.2374 17.1768 14.7626 17.1768 14.4697 17.4697L13.1768 18.7626C13.0193 18.9201 12.75 18.8085 12.75 18.5858V12.75H19.25V18.2007C18.8016 18.46 18.5 18.9448 18.5 19.5C18.5 20.3284 19.1716 21 20 21C20.8284 21 21.5 20.3284 21.5 19.5C21.5 18.9448 21.1984 18.46 20.75 18.2007V12.75H28.25V27C28.25 27.1381 28.1381 27.25 28 27.25H5C4.86193 27.25 4.75 27.1381 4.75 27V19.7993C5.19835 19.54 5.5 19.0552 5.5 18.5C5.5 17.6716 4.82843 17 4 17C3.17157 17 2.5 17.6716 2.5 18.5C2.5 19.0552 2.80165 19.54 3.25 19.7993V27C3.25 27.9665 4.0335 28.75 5 28.75H28C28.9665 28.75 29.75 27.9665 29.75 27V12C29.75 11.8836 29.7229 11.7687 29.6708 11.6646L26.4472 5.21738C26.1508 4.6245 25.5448 4.25 24.882 4.25H7.11803C6.45518 4.25 5.84922 4.6245 5.55279 5.21738L4.32918 7.66459C4.14394 8.03507 4.29411 8.48558 4.66459 8.67082C5.03507 8.85606 5.48558 8.70589 5.67082 8.33541L6.89443 5.8882Z" fill="#252929"/>
</svg>
