<svg width="32" height="32" viewBox="0 0 32 32" fill="none" xmlns="http://www.w3.org/2000/svg">
<circle cx="6" cy="7" r="2.25" stroke="#252929" stroke-width="1.5"/>
<circle cx="26" cy="7" r="2.25" stroke="#252929" stroke-width="1.5"/>
<circle cx="26" cy="25" r="2.25" stroke="#252929" stroke-width="1.5"/>
<circle cx="6" cy="25" r="2.25" stroke="#252929" stroke-width="1.5"/>
<path fill-rule="evenodd" clip-rule="evenodd" d="M16 28.5C18.7004 28.5 21.2007 27.6437 23.2444 26.1879C23.447 26.6573 23.7661 27.0647 24.1652 27.3736C21.8668 29.0265 19.0471 30 16 30C12.9529 30 10.1332 29.0265 7.83485 27.3736C8.23394 27.0647 8.55299 26.6573 8.75562 26.1879C10.7993 27.6437 13.2996 28.5 16 28.5ZM5.1067 22.1352C4.08373 20.3228 3.5 18.2296 3.5 16C3.5 13.7704 4.08373 11.6772 5.1067 9.86475C4.61532 9.71169 4.17814 9.43569 3.83117 9.07273C2.66583 11.1154 2 13.48 2 16C2 18.52 2.66583 20.8846 3.83117 22.9273C4.17815 22.5643 4.61532 22.2883 5.1067 22.1352ZM28.1688 22.9273C27.8219 22.5643 27.3847 22.2883 26.8933 22.1352C27.9163 20.3228 28.5 18.2296 28.5 16C28.5 13.7704 27.9163 11.6772 26.8933 9.86475C27.3847 9.71169 27.8219 9.43569 28.1688 9.07273C29.3342 11.1154 30 13.48 30 16C30 18.52 29.3342 20.8846 28.1688 22.9273ZM16 2C19.0471 2 21.8668 2.97346 24.1652 4.62636C23.7661 4.93531 23.447 5.34268 23.2444 5.81208C21.2007 4.35626 18.7004 3.5 16 3.5C13.2996 3.5 10.7993 4.35626 8.75562 5.81208C8.55299 5.34268 8.23394 4.93531 7.83485 4.62636C10.1332 2.97346 12.9529 2 16 2Z" fill="#252929"/>
<path d="M23.25 16C23.25 20.0041 20.0041 23.25 16 23.25C11.9959 23.25 8.75 20.0041 8.75 16C8.75 11.9959 11.9959 8.75 16 8.75C20.0041 8.75 23.25 11.9959 23.25 16Z" stroke="#252929" stroke-width="1.5"/>
</svg>
