<svg width="32" height="32" viewBox="0 0 32 32" fill="none" xmlns="http://www.w3.org/2000/svg">
<path d="M3 10V26C3 27.1046 3.89543 28 5 28H27C28.1046 28 29 27.1046 29 26V10M3 10L6.40627 4.8906C6.7772 4.3342 7.40166 4 8.07037 4H23.9296C24.5983 4 25.2228 4.3342 25.5937 4.8906L29 10M3 10H12M29 10H20M12 10V19.191C12 19.5627 12.3912 19.8044 12.7236 19.6382L15.5528 18.2236C15.8343 18.0828 16.1657 18.0828 16.4472 18.2236L19.2764 19.6382C19.6088 19.8044 20 19.5627 20 19.191V10M12 10H20" stroke="#252929" stroke-width="1.5" stroke-linejoin="round"/>
</svg>
