<svg width="32" height="32" viewBox="0 0 32 32" fill="none" xmlns="http://www.w3.org/2000/svg">
<path d="M18.5 7H13.8471C13.3583 7 12.9411 7.35341 12.8607 7.8356L10.1941 23.8356C10.0925 24.4451 10.5625 25 11.1805 25H15H25.1529C25.6417 25 26.0589 24.6466 26.1393 24.1644L28.8059 8.1644C28.9075 7.55487 28.4375 7 27.8195 7H23.5M18.5 7L17.6941 11.8356C17.5925 12.4451 18.0625 13 18.6805 13H21.6529C22.1417 13 22.5589 12.6466 22.6393 12.1644L23.5 7M18.5 7H23.5" stroke="#252929" stroke-width="1.5" stroke-linecap="round" stroke-linejoin="round"/>
<path d="M2 12L9 12" stroke="#252929" stroke-width="1.5" stroke-linecap="round" stroke-linejoin="round"/>
<path d="M2 16H7" stroke="#252929" stroke-width="1.5" stroke-linecap="round" stroke-linejoin="round"/>
<path d="M2 20H5" stroke="#252929" stroke-width="1.5" stroke-linecap="round" stroke-linejoin="round"/>
</svg>
