<svg width="32" height="32" viewBox="0 0 32 32" fill="none" xmlns="http://www.w3.org/2000/svg">
<path d="M6.71396 5.84022C7.03453 5.51866 7.51841 5.39968 7.9603 5.56013C8.49361 5.75377 9.22688 6.04829 10.1626 6.44618C10.7453 6.69394 11.402 6.70069 11.9917 6.45575C12.6161 6.19641 13.1072 5.67776 13.3474 5.02897C13.7 4.07625 13.9545 3.43184 14.1411 2.99669V2.99669C14.3404 2.5318 14.7958 2.25 15.2798 2.25H16.6095C17.0826 2.25 17.5298 2.51925 17.7358 2.96895C17.9375 3.40938 18.2173 4.07048 18.6132 5.06173C18.8625 5.68601 19.3462 6.18254 19.9539 6.43325C20.5641 6.68496 21.2443 6.66774 21.8399 6.3959C22.7982 5.95845 23.452 5.67989 23.8979 5.50291C24.3661 5.31706 24.8873 5.43793 25.2306 5.78109L26.1434 6.69349C26.4781 7.0281 26.6038 7.53455 26.432 7.99795C26.2627 8.45477 25.9934 9.12143 25.5748 10.1006C25.3146 10.7095 25.3049 11.4083 25.5602 12.0277C25.8196 12.657 26.3239 13.1358 26.9341 13.3615C27.9043 13.7204 28.56 13.9786 29.0025 14.1679C29.4679 14.3671 29.75 14.8227 29.75 15.307V16.586C29.75 17.0579 29.4821 17.5044 29.0337 17.711C28.5853 17.9177 27.9111 18.2038 26.8988 18.6089C26.3134 18.8432 25.8322 19.3135 25.5825 19.9239C25.322 20.5608 25.3422 21.2795 25.6253 21.8974C26.0453 22.8143 26.3204 23.4482 26.4972 23.8887C26.6857 24.3581 26.5641 24.8803 26.2213 25.2236L25.2817 26.1647L24.9876 25.871L25.2817 26.1647C25.1668 26.2797 25.031 26.3687 24.8836 26.428L24.8342 26.6929L24.8325 26.6925L24.8817 26.4288C24.6191 26.534 24.3203 26.5453 24.0387 26.4426C23.5069 26.2488 22.7754 25.9541 21.8415 25.5563C21.2577 25.3076 20.5997 25.3002 20.0085 25.5448C19.3818 25.8041 18.8881 26.3238 18.6465 26.9749C18.2941 27.9245 18.0405 28.5673 17.8548 29.0018C17.6558 29.4673 17.2001 29.75 16.7153 29.75H15.3825C14.9095 29.75 14.4624 29.4809 14.2563 29.0314C14.0544 28.5908 13.7743 27.9292 13.3778 26.9366C13.1295 26.3151 12.6487 25.8201 12.0443 25.5686C11.4326 25.3141 10.7496 25.3305 10.1519 25.6035C9.19821 26.0392 8.54643 26.3176 8.10102 26.495C7.63231 26.6818 7.10991 26.5611 6.76601 26.2169L5.85058 25.3008C5.51624 24.9662 5.39086 24.46 5.56249 23.9969C5.73173 23.5403 6.0008 22.8741 6.41891 21.8961C6.67875 21.2884 6.68836 20.5907 6.43311 19.9725C6.17466 19.3465 5.67318 18.8699 5.06645 18.6444C4.09451 18.2832 3.43814 18.0236 2.99546 17.8332L2.99546 17.8332C2.53115 17.6336 2.25 17.1785 2.25 16.695V15.4097C2.25 14.9365 2.51934 14.4894 2.96897 14.2833M6.71396 5.84022L2.96897 14.2833M6.71396 5.84022L7.18617 6.31097L6.71396 5.84022L5.77626 6.78082C5.43429 7.12384 5.31279 7.64529 5.50081 8.11431C5.67713 8.55417 5.95158 9.18691 6.37072 10.1009C6.65515 10.7211 6.6747 11.443 6.41137 12.0818C6.16101 12.6891 5.68112 13.1571 5.09763 13.3905C4.08909 13.7939 3.41679 14.0782 2.96897 14.2833M6.71396 5.84022L2.96897 14.2833" stroke="#252929" stroke-width="1.5"/>
<path d="M18 16C18 17.1046 17.1046 18 16 18C14.8954 18 14 17.1046 14 16C14 14.8954 14.8954 14 16 14C17.1046 14 18 14.8954 18 16Z" fill="#252929"/>
</svg>
