<svg width="32" height="32" viewBox="0 0 32 32" fill="none" xmlns="http://www.w3.org/2000/svg">
<path d="M22.5 16V4C22.5 3.44772 22.0523 3 21.5 3H18M22.5 16H20.5M22.5 16H24.5M9.5 16V4C9.5 3.44772 9.94772 3 10.5 3H14M9.5 16H11.5M9.5 16H7.5M16 16V29M16 16H11.5M16 16H20.5M16 29H4C3.44772 29 3 28.5523 3 28V17C3 16.4477 3.44772 16 4 16H7.5M16 29H28C28.5523 29 29 28.5523 29 28V17C29 16.4477 28.5523 16 28 16H24.5M11.5 16V20C11.5 20.5523 11.0523 21 10.5 21H8.5C7.94772 21 7.5 20.5523 7.5 20V16M20.5 16V20C20.5 20.5523 20.9477 21 21.5 21H23.5C24.0523 21 24.5 20.5523 24.5 20V16M14 3V7C14 7.55228 14.4477 8 15 8H17C17.5523 8 18 7.55228 18 7V3M14 3H18" stroke="#252929" stroke-width="1.5" stroke-linecap="round" stroke-linejoin="round"/>
</svg>
