<svg width="20" height="20" viewBox="0 0 20 20" fill="none" xmlns="http://www.w3.org/2000/svg">
<path d="M5 17.5H4.25C4.25 17.7599 4.38459 18.0013 4.6057 18.138C4.82681 18.2746 5.10292 18.2871 5.33541 18.1708L5 17.5ZM10 15L10.3354 14.3292C10.1243 14.2236 9.87574 14.2236 9.66459 14.3292L10 15ZM15 17.5L14.6646 18.1708C14.8971 18.2871 15.1732 18.2746 15.3943 18.138C15.6154 18.0013 15.75 17.7599 15.75 17.5H15ZM4.25 4V17.5H5.75V4H4.25ZM5.33541 18.1708L10.3354 15.6708L9.66459 14.3292L4.66459 16.8292L5.33541 18.1708ZM9.66459 15.6708L14.6646 18.1708L15.3354 16.8292L10.3354 14.3292L9.66459 15.6708ZM15.75 17.5V4H14.25V17.5H15.75ZM13 1.25H7V2.75H13V1.25ZM15.75 4C15.75 2.48122 14.5188 1.25 13 1.25V2.75C13.6904 2.75 14.25 3.30964 14.25 4H15.75ZM5.75 4C5.75 3.30964 6.30964 2.75 7 2.75V1.25C5.48122 1.25 4.25 2.48122 4.25 4H5.75Z" fill="#252929"/>
</svg>
