<svg width="20" height="20" viewBox="0 0 20 20" fill="none" xmlns="http://www.w3.org/2000/svg">
<path fill-rule="evenodd" clip-rule="evenodd" d="M5.5 11C6.32843 11 7 10.3284 7 9.5C7 8.67157 6.32843 8 5.5 8C4.67157 8 4 8.67157 4 9.5C4 10.3284 4.67157 11 5.5 11ZM11.5 9.5C11.5 10.3284 10.8284 11 10 11C9.17157 11 8.5 10.3284 8.5 9.5C8.5 8.67157 9.17157 8 10 8C10.8284 8 11.5 8.67157 11.5 9.5ZM16 9.5C16 10.3284 15.3284 11 14.5 11C13.6716 11 13 10.3284 13 9.5C13 8.67157 13.6716 8 14.5 8C15.3284 8 16 8.67157 16 9.5Z" fill="#252929"/>
</svg>
