<svg width="20" height="20" viewBox="0 0 20 20" fill="none" xmlns="http://www.w3.org/2000/svg">
<path fill-rule="evenodd" clip-rule="evenodd" d="M3.75 9C3.75 6.1005 6.1005 3.75 9 3.75C11.8995 3.75 14.25 6.1005 14.25 9C14.25 11.8995 11.8995 14.25 9 14.25C6.1005 14.25 3.75 11.8995 3.75 9ZM9 2.25C5.27208 2.25 2.25 5.27208 2.25 9C2.25 12.7279 5.27208 15.75 9 15.75C10.5938 15.75 12.0585 15.1976 13.2133 14.2739L16.4697 17.5303C16.7626 17.8232 17.2374 17.8232 17.5303 17.5303C17.8232 17.2374 17.8232 16.7626 17.5303 16.4697L14.2739 13.2133C15.1976 12.0585 15.75 10.5938 15.75 9C15.75 5.27208 12.7279 2.25 9 2.25Z" fill="#252929"/>
</svg>
