<svg width="24" height="25" viewBox="0 0 24 25" fill="none" xmlns="http://www.w3.org/2000/svg">
<path d="M5.5 10H3M3 10V15C3 16.1046 3.89543 17 5 17H12M3 10V5C3 3.89543 3.89543 3 5 3H19C20.1046 3 21 3.89543 21 5V10M21 10V15C21 16.1046 20.1046 17 19 17H12M21 10H18.5M12 17V21M12 21H6M12 21H19" stroke="#252929" stroke-width="1.5" stroke-linecap="round" stroke-linejoin="round"/>
<path d="M12 7.00195V13.002" stroke="#252929" stroke-width="1.5" stroke-linecap="round" stroke-linejoin="round"/>
<path d="M15 10.002L9 10.002" stroke="#252929" stroke-width="1.5" stroke-linecap="round" stroke-linejoin="round"/>
</svg>
