<svg width="24" height="25" viewBox="0 0 24 25" fill="none" xmlns="http://www.w3.org/2000/svg">
<path d="M7 3.5V10.5M3.5 7H10.5M14.5 21H20C20.5523 21 21 20.5523 21 20V14.5C21 13.9477 20.5523 13.5 20 13.5H14.5C13.9477 13.5 13.5 13.9477 13.5 14.5V20C13.5 20.5523 13.9477 21 14.5 21ZM14.5 10.5H20C20.5523 10.5 21 10.0523 21 9.5V4C21 3.44772 20.5523 3 20 3H14.5C13.9477 3 13.5 3.44772 13.5 4V9.5C13.5 10.0523 13.9477 10.5 14.5 10.5ZM4 21H9.5C10.0523 21 10.5 20.5523 10.5 20V14.5C10.5 13.9477 10.0523 13.5 9.5 13.5H4C3.44772 13.5 3 13.9477 3 14.5V20C3 20.5523 3.44772 21 4 21Z" stroke="#252929" stroke-width="1.5" stroke-linecap="round"/>
</svg>
