<svg width="24" height="24" viewBox="0 0 24 24" fill="none" xmlns="http://www.w3.org/2000/svg">
<path d="M4.00037 7V6.25C3.60689 6.25 3.28031 6.55409 3.25227 6.94656L4.00037 7ZM3.00037 21L2.25227 20.9466C2.23744 21.1542 2.30959 21.3587 2.45147 21.5111C2.59334 21.6635 2.79217 21.75 3.00037 21.75V21ZM21.0004 21V21.75C21.2086 21.75 21.4074 21.6635 21.5493 21.5111C21.6911 21.3587 21.7633 21.1542 21.7485 20.9466L21.0004 21ZM20.0004 7L20.7485 6.94656C20.7204 6.55409 20.3938 6.25 20.0004 6.25V7ZM8.75037 11C8.75037 10.5858 8.41458 10.25 8.00037 10.25C7.58615 10.25 7.25037 10.5858 7.25037 11H8.75037ZM16.7504 11C16.7504 10.5858 16.4146 10.25 16.0004 10.25C15.5862 10.25 15.2504 10.5858 15.2504 11H16.7504ZM3.25227 6.94656L2.25227 20.9466L3.74846 21.0534L4.74846 7.05344L3.25227 6.94656ZM3.00037 21.75H21.0004V20.25H3.00037V21.75ZM21.7485 20.9466L20.7485 6.94656L19.2523 7.05344L20.2523 21.0534L21.7485 20.9466ZM8.00032 6.25H4.00037V7.75H8.00032V6.25ZM8.00032 7C8.75032 7 8.75032 7.00035 8.75032 7.00069C8.75032 7.00078 8.75032 7.0011 8.75032 7.00129C8.75032 7.00166 8.75032 7.00197 8.75032 7.00222C8.75031 7.00273 8.75031 7.00301 8.75031 7.00305C8.75031 7.00315 8.75032 7.00232 8.75034 7.00062C8.7504 6.99721 8.75054 6.99028 8.75088 6.98006C8.75156 6.95961 8.75304 6.92615 8.75623 6.88156C8.76261 6.79212 8.77575 6.65946 8.80261 6.4983C8.85693 6.17242 8.96416 5.74937 9.17114 5.33541C9.37665 4.92438 9.67315 4.53617 10.1038 4.24904C10.5298 3.96504 11.1316 3.75 12.0003 3.75V2.25C10.8691 2.25 9.97079 2.53496 9.27179 3.00096C8.57749 3.46383 8.12399 4.07562 7.8295 4.66459C7.53648 5.25063 7.39371 5.82758 7.32302 6.2517C7.28738 6.46554 7.26927 6.64538 7.26004 6.77469C7.25541 6.83947 7.25298 6.89195 7.25171 6.93009C7.25108 6.94917 7.25073 6.9647 7.25054 6.97643C7.25044 6.98229 7.25039 6.98721 7.25036 6.99115C7.25034 6.99312 7.25033 6.99484 7.25033 6.99632C7.25032 6.99706 7.25032 6.99773 7.25032 6.99835C7.25032 6.99865 7.25032 6.99907 7.25032 6.99922C7.25032 6.99962 7.25032 7 8.00032 7ZM20.0004 6.25H16.0003V7.75H20.0004V6.25ZM16.0003 6.25H8.00032V7.75H16.0003V6.25ZM12.0003 3.75C12.8691 3.75 13.4708 3.96504 13.8968 4.24904C14.3275 4.53617 14.624 4.92438 14.8295 5.33541C15.0365 5.74937 15.1437 6.17242 15.198 6.4983C15.2249 6.65946 15.238 6.79212 15.2444 6.88156C15.2476 6.92615 15.2491 6.95961 15.2498 6.98006C15.2501 6.99028 15.2502 6.99721 15.2503 7.00062C15.2503 7.00232 15.2503 7.00315 15.2503 7.00305C15.2503 7.00301 15.2503 7.00273 15.2503 7.00222C15.2503 7.00197 15.2503 7.00166 15.2503 7.00129C15.2503 7.0011 15.2503 7.00078 15.2503 7.00069C15.2503 7.00035 15.2503 7 16.0003 7C16.7503 7 16.7503 6.99962 16.7503 6.99922C16.7503 6.99907 16.7503 6.99865 16.7503 6.99835C16.7503 6.99773 16.7503 6.99706 16.7503 6.99632C16.7503 6.99484 16.7503 6.99312 16.7503 6.99115C16.7502 6.98721 16.7502 6.98229 16.7501 6.97643C16.7499 6.9647 16.7496 6.94917 16.7489 6.93009C16.7477 6.89195 16.7452 6.83947 16.7406 6.77469C16.7314 6.64538 16.7133 6.46554 16.6776 6.2517C16.6069 5.82758 16.4642 5.25063 16.1711 4.66459C15.8767 4.07562 15.4231 3.46383 14.7288 3.00096C14.0298 2.53496 13.1316 2.25 12.0003 2.25V3.75ZM8.00037 11C7.25037 11 7.25037 11.0005 7.25037 11.001C7.25037 11.0012 7.25037 11.0017 7.25037 11.0021C7.25037 11.0028 7.25037 11.0036 7.25038 11.0045C7.25039 11.0062 7.2504 11.008 7.25042 11.0101C7.25047 11.0142 7.25054 11.0191 7.25066 11.0247C7.2509 11.0359 7.25133 11.0501 7.25208 11.067C7.25358 11.1007 7.25638 11.1456 7.26156 11.2C7.27189 11.3086 7.29189 11.4567 7.33073 11.6314C7.40797 11.979 7.56287 12.4458 7.87633 12.916C8.53243 13.9002 9.78189 14.75 12.0004 14.75V13.25C10.2188 13.25 9.4683 12.5998 9.1244 12.084C8.93786 11.8042 8.84276 11.521 8.79501 11.3061C8.77134 11.1996 8.76009 11.1133 8.7548 11.0578C8.75217 11.0302 8.75106 11.0106 8.7506 11.0004C8.75038 10.9953 8.75032 10.9926 8.75031 10.9925C8.75031 10.9924 8.75033 10.993 8.75034 10.9942C8.75035 10.9949 8.75035 10.9957 8.75036 10.9966C8.75036 10.9971 8.75036 10.9976 8.75036 10.9982C8.75036 10.9985 8.75037 10.9989 8.75037 10.9991C8.75037 10.9995 8.75037 11 8.00037 11ZM12.0004 14.75C14.2188 14.75 15.4683 13.9002 16.1244 12.916C16.4379 12.4458 16.5928 11.979 16.67 11.6314C16.7088 11.4567 16.7288 11.3086 16.7392 11.2C16.7444 11.1456 16.7471 11.1007 16.7486 11.067C16.7494 11.0501 16.7498 11.0359 16.7501 11.0247C16.7502 11.0191 16.7503 11.0142 16.7503 11.0101C16.7503 11.008 16.7503 11.0062 16.7504 11.0045C16.7504 11.0036 16.7504 11.0028 16.7504 11.0021C16.7504 11.0017 16.7504 11.0012 16.7504 11.001C16.7504 11.0005 16.7504 11 16.0004 11C15.2504 11 15.2504 10.9995 15.2504 10.9991C15.2504 10.9989 15.2504 10.9985 15.2504 10.9982C15.2504 10.9976 15.2504 10.9971 15.2504 10.9966C15.2504 10.9957 15.2504 10.9949 15.2504 10.9942C15.2504 10.993 15.2504 10.9924 15.2504 10.9925C15.2504 10.9926 15.2504 10.9953 15.2501 11.0004C15.2497 11.0106 15.2486 11.0302 15.2459 11.0578C15.2406 11.1133 15.2294 11.1996 15.2057 11.3061C15.158 11.521 15.0629 11.8042 14.8763 12.084C14.5324 12.5998 13.7819 13.25 12.0004 13.25V14.75Z" fill="#252929"/>
</svg>
