<svg width="24" height="25" viewBox="0 0 24 25" fill="none" xmlns="http://www.w3.org/2000/svg">
<path d="M17 10.5V21L13.5 19L10 21L6.5 19L3 21V6C3 4.34315 4.34315 3 6 3H18.5M17 10.5H19.5C20.0523 10.5 20.5 10.0523 20.5 9.5V5C20.5 3.89543 19.6046 3 18.5 3V3M17 10.5C17 10.5 17 8 17 6C17 4 18.5 3 18.5 3" stroke="#252929" stroke-width="1.5" stroke-linecap="round" stroke-linejoin="round"/>
<path d="M6.5 8H13.5" stroke="#252929" stroke-width="1.5" stroke-linecap="round" stroke-linejoin="round"/>
<path d="M6.5 11H13.5" stroke="#252929" stroke-width="1.5" stroke-linecap="round" stroke-linejoin="round"/>
<path d="M6.5 14H13.5" stroke="#252929" stroke-width="1.5" stroke-linecap="round" stroke-linejoin="round"/>
</svg>
