<svg width="24" height="24" viewBox="0 0 24 24" fill="none" xmlns="http://www.w3.org/2000/svg"><path d="M5 21h-.75a.75.75 0 0 0 1.122.651L5 21Zm7-4 .373-.651a.75.75 0 0 0-.745 0L12 17Zm7 4-.372.651A.75.75 0 0 0 19.75 21H19ZM4.25 5v16h1.5V5h-1.5Zm1.122 16.651 7-4-.744-1.302-7 4 .744 1.302Zm6.256-4 7 4 .744-1.302-7-4-.744 1.302ZM19.75 21V5h-1.5v16h1.5ZM17 2.25H7v1.5h10v-1.5ZM19.75 5A2.75 2.75 0 0 0 17 2.25v1.5c.69 0 1.25.56 1.25 1.25h1.5Zm-14 0c0-.69.56-1.25 1.25-1.25v-1.5A2.75 2.75 0 0 0 4.25 5h1.5Z" fill="currentColor"/></svg>