<svg width="24" height="24" viewBox="0 0 24 24" fill="none" xmlns="http://www.w3.org/2000/svg">
<path d="M5.00037 21H4.25037C4.25037 21.2674 4.39268 21.5145 4.62392 21.6487C4.85516 21.7829 5.14034 21.7838 5.37247 21.6512L5.00037 21ZM12.0004 17L12.3725 16.3488C12.1419 16.2171 11.8588 16.2171 11.6283 16.3488L12.0004 17ZM19.0004 21L18.6283 21.6512C18.8604 21.7838 19.1456 21.7829 19.3768 21.6487C19.608 21.5145 19.7504 21.2674 19.7504 21H19.0004ZM4.25037 5V21H5.75037V5H4.25037ZM5.37247 21.6512L12.3725 17.6512L11.6283 16.3488L4.62826 20.3488L5.37247 21.6512ZM11.6283 17.6512L18.6283 21.6512L19.3725 20.3488L12.3725 16.3488L11.6283 17.6512ZM19.7504 21V5H18.2504V21H19.7504ZM17.0004 2.25H7.00037V3.75H17.0004V2.25ZM19.7504 5C19.7504 3.48122 18.5191 2.25 17.0004 2.25V3.75C17.6907 3.75 18.2504 4.30964 18.2504 5H19.7504ZM5.75037 5C5.75037 4.30964 6.31001 3.75 7.00037 3.75V2.25C5.48158 2.25 4.25037 3.48122 4.25037 5H5.75037Z" fill="#252929"/>
</svg>
