<svg width="24" height="25" viewBox="0 0 24 25" fill="none" xmlns="http://www.w3.org/2000/svg">
<path fill-rule="evenodd" clip-rule="evenodd" d="M7.53034 6.47164C7.23745 6.17874 6.76258 6.17874 6.46968 6.47164C6.17679 6.76453 6.17679 7.2394 6.46968 7.5323L10.9394 12.002L6.46968 16.4716C6.17679 16.7645 6.17679 17.2394 6.46968 17.5323C6.76258 17.8252 7.23745 17.8252 7.53034 17.5323L12 13.0626L16.4697 17.5323C16.7626 17.8252 17.2375 17.8252 17.5303 17.5323C17.8232 17.2394 17.8232 16.7645 17.5303 16.4716L13.0607 12.002L17.5303 7.5323C17.8232 7.2394 17.8232 6.76453 17.5303 6.47164C17.2375 6.17874 16.7626 6.17874 16.4697 6.47164L12 10.9413L7.53034 6.47164Z" fill="#252929"/>
</svg>
