<svg width="24" height="24" viewBox="0 0 24 24" fill="none" xmlns="http://www.w3.org/2000/svg">
<path d="M9 10V18" stroke="#252929" stroke-width="1.5" stroke-linecap="round" stroke-linejoin="round"/>
<path d="M12 10V18" stroke="#252929" stroke-width="1.5" stroke-linecap="round" stroke-linejoin="round"/>
<path d="M15 10V18" stroke="#252929" stroke-width="1.5" stroke-linecap="round" stroke-linejoin="round"/>
<path d="M5 4.5V21C5 21.5523 5.44772 22 6 22H18C18.5523 22 19 21.5523 19 21V4.5M5 4.5H4M5 4.5H9M19 4.5H20M19 4.5H15M9 4.5V3C9 2.44772 9.44772 2 10 2H14C14.5523 2 15 2.44772 15 3V4.5M9 4.5H15" stroke="#252929" stroke-width="1.5" stroke-linecap="round" stroke-linejoin="round"/>
</svg>
