<svg width="24" height="25" viewBox="0 0 24 25" fill="none" xmlns="http://www.w3.org/2000/svg">
<path fill-rule="evenodd" clip-rule="evenodd" d="M14.4142 2.25C13.9501 2.25 13.5049 2.43437 13.1767 2.76256L4.96964 10.9697L2.67675 13.2626C1.99333 13.946 1.99333 15.054 2.67675 15.7374L8.26253 21.3232C8.94595 22.0066 10.054 22.0066 10.7374 21.3232L13.0303 19.0303L21.2374 10.8232C21.5656 10.495 21.75 10.0499 21.75 9.58579V5.91421C21.75 5.45008 21.5656 5.00497 21.2374 4.67678L19.3232 2.76256C18.995 2.43437 18.5499 2.25 18.0858 2.25H14.4142ZM14.2374 3.82322C14.2843 3.77634 14.3479 3.75 14.4142 3.75H18.0858C18.1521 3.75 18.2157 3.77634 18.2625 3.82322L20.1767 5.73744C20.2236 5.78432 20.25 5.84791 20.25 5.91421V9.58579C20.25 9.65209 20.2236 9.71568 20.1767 9.76256L12.5 17.4393L6.56063 11.5L14.2374 3.82322ZM5.49997 12.5607L11.4393 18.5L9.67675 20.2626C9.57912 20.3602 9.42083 20.3602 9.32319 20.2626L3.73741 14.6768C3.63978 14.5791 3.63978 14.4209 3.73741 14.3232L5.49997 12.5607ZM16 9C16.5523 9 17 8.55228 17 8C17 7.44772 16.5523 7 16 7C15.4477 7 15 7.44772 15 8C15 8.55228 15.4477 9 16 9Z" fill="#252929"/>
</svg>
