<svg width="24" height="24" viewBox="0 0 24 24" fill="none" xmlns="http://www.w3.org/2000/svg">
<path fill-rule="evenodd" clip-rule="evenodd" d="M9.5 8C10.3284 8 11 7.32843 11 6.5C11 5.67157 10.3284 5 9.5 5C8.67157 5 8 5.67157 8 6.5C8 7.32843 8.67157 8 9.5 8ZM14.5 8C15.3284 8 16 7.32843 16 6.5C16 5.67157 15.3284 5 14.5 5C13.6716 5 13 5.67157 13 6.5C13 7.32843 13.6716 8 14.5 8ZM16 12C16 12.8284 15.3284 13.5 14.5 13.5C13.6716 13.5 13 12.8284 13 12C13 11.1716 13.6716 10.5 14.5 10.5C15.3284 10.5 16 11.1716 16 12ZM9.5 13.5C10.3284 13.5 11 12.8284 11 12C11 11.1716 10.3284 10.5 9.5 10.5C8.67157 10.5 8 11.1716 8 12C8 12.8284 8.67157 13.5 9.5 13.5ZM11 17.5C11 18.3284 10.3284 19 9.5 19C8.67157 19 8 18.3284 8 17.5C8 16.6716 8.67157 16 9.5 16C10.3284 16 11 16.6716 11 17.5ZM14.5 19C15.3284 19 16 18.3284 16 17.5C16 16.6716 15.3284 16 14.5 16C13.6716 16 13 16.6716 13 17.5C13 18.3284 13.6716 19 14.5 19Z" fill="#252929"/>
</svg>
