<svg width="24" height="24" viewBox="0 0 24 24" fill="none" xmlns="http://www.w3.org/2000/svg">
<path d="M16 3L16.5303 2.46967C16.2374 2.17678 15.7626 2.17678 15.4697 2.46967L16 3ZM20 7L20.5303 7.53033C20.8232 7.23744 20.8232 6.76256 20.5303 6.46967L20 7ZM10 17V17.75C10.1989 17.75 10.3897 17.671 10.5303 17.5303L10 17ZM6 17H5.25C5.25 17.4142 5.58579 17.75 6 17.75V17ZM6 13L5.46967 12.4697C5.32902 12.6103 5.25 12.8011 5.25 13H6ZM15.4697 3.53033L19.4697 7.53033L20.5303 6.46967L16.5303 2.46967L15.4697 3.53033ZM10 16.25H6V17.75H10V16.25ZM6.75 17V13H5.25V17H6.75ZM6.53033 13.5303L14.5303 5.53033L13.4697 4.46967L5.46967 12.4697L6.53033 13.5303ZM14.5303 5.53033L16.5303 3.53033L15.4697 2.46967L13.4697 4.46967L14.5303 5.53033ZM19.4697 6.46967L17.4697 8.46967L18.5303 9.53033L20.5303 7.53033L19.4697 6.46967ZM17.4697 8.46967L9.46967 16.4697L10.5303 17.5303L18.5303 9.53033L17.4697 8.46967ZM13.4697 5.53033L17.4697 9.53033L18.5303 8.46967L14.5303 4.46967L13.4697 5.53033Z" fill="#252929"/>
<path d="M3 21H21" stroke="#252929" stroke-width="1.5" stroke-linecap="round" stroke-linejoin="round"/>
</svg>
