<svg width="24" height="24" viewBox="0 0 24 24" fill="none" xmlns="http://www.w3.org/2000/svg">
<path d="M3 10H5H21M3 10V15C3 16.1046 3.89543 17 5 17H12M3 10V5C3 3.89543 3.89543 3 5 3H19C20.1046 3 21 3.89543 21 5V10M21 10V15C21 16.1046 20.1046 17 19 17H12M12 17V21M12 21H6M12 21H19" stroke="#252929" stroke-width="1.5" stroke-linecap="round" stroke-linejoin="round"/>
<path d="M8 13.5C8 14.0523 7.55228 14.5 7 14.5C6.44772 14.5 6 14.0523 6 13.5C6 12.9477 6.44772 12.5 7 12.5C7.55228 12.5 8 12.9477 8 13.5Z" fill="#252929"/>
<path d="M8 6.5C8 7.05228 7.55228 7.5 7 7.5C6.44772 7.5 6 7.05228 6 6.5C6 5.94772 6.44772 5.5 7 5.5C7.55228 5.5 8 5.94772 8 6.5Z" fill="#252929"/>
</svg>
