<svg width="24" height="25" viewBox="0 0 24 25" fill="none" xmlns="http://www.w3.org/2000/svg">
<path fill-rule="evenodd" clip-rule="evenodd" d="M3.81837 12.0861C3.79668 12.0512 3.78125 12.0233 3.77037 12.002C3.78125 11.9806 3.79668 11.9527 3.81837 11.9178C3.90129 11.7846 4.03994 11.6076 4.24237 11.3982C4.64535 10.9813 5.25038 10.4881 6.01807 10.0157C6.59376 9.66143 7.25044 9.32519 7.96902 9.04315C7.35987 9.87164 7 10.8948 7 12.002C7 13.1091 7.35987 14.1323 7.96902 14.9608C7.25044 14.6787 6.59376 14.3425 6.01807 13.9882C5.25038 13.5158 4.64535 13.0226 4.24237 12.6057C4.03994 12.3963 3.90129 12.2193 3.81837 12.0861ZM16.031 14.9608C16.7496 14.6787 17.4062 14.3425 17.9819 13.9882C18.7496 13.5158 19.3547 13.0226 19.7576 12.6057C19.9601 12.3963 20.0987 12.2193 20.1816 12.0861C20.2033 12.0513 20.2187 12.0233 20.2296 12.0019C20.2187 11.9806 20.2033 11.9527 20.1816 11.9178C20.0987 11.7846 19.9601 11.6076 19.7576 11.3982C19.3547 10.9813 18.7496 10.4881 17.9819 10.0157C17.4062 9.66143 16.7496 9.32519 16.031 9.04315C16.6401 9.87164 17 10.8948 17 12.002C17 13.1091 16.6401 14.1323 16.031 14.9608ZM12 6.75195C9.32908 6.75195 6.9444 7.68438 5.23193 8.73821C4.37462 9.26578 3.66715 9.83506 3.16388 10.3557C2.91318 10.615 2.70027 10.8756 2.54491 11.1252C2.40442 11.3509 2.25 11.6626 2.25 12.002C2.25 12.3413 2.40442 12.653 2.54491 12.8788C2.70027 13.1283 2.91318 13.3889 3.16388 13.6482C3.66715 14.1688 4.37462 14.7381 5.23193 15.2657C6.9444 16.3195 9.32908 17.252 12 17.252C14.6709 17.252 17.0556 16.3195 18.7681 15.2657C19.6254 14.7381 20.3328 14.1688 20.8361 13.6482C21.0868 13.3889 21.2997 13.1283 21.4551 12.8788C21.5956 12.653 21.75 12.3413 21.75 12.002C21.75 11.6626 21.5956 11.3509 21.4551 11.1252C21.2997 10.8756 21.0868 10.615 20.8361 10.3557C20.3328 9.83506 19.6254 9.26578 18.7681 8.73821C17.0556 7.68438 14.6709 6.75195 12 6.75195ZM15.5 12.002C15.5 13.9349 13.933 15.502 12 15.502C10.067 15.502 8.5 13.9349 8.5 12.002C8.5 10.069 10.067 8.50195 12 8.50195C13.933 8.50195 15.5 10.069 15.5 12.002Z" fill="#252929"/>
</svg>
