<svg width="24" height="25" viewBox="0 0 24 25" fill="none" xmlns="http://www.w3.org/2000/svg">
<path d="M20.1691 4.50412L20.1691 4.5041C20.129 4.28043 20.0528 4.05429 19.9539 3.78752C19.8789 3.80551 19.8149 3.82301 19.755 3.84271C18.3342 4.31014 17.0051 4.99822 15.7076 5.81363L15.7072 5.81385C15.3505 6.03778 14.9153 6.08669 14.5991 6.06353L20.1691 4.50412ZM20.1691 4.50412C20.1954 4.65127 20.2221 4.79597 20.2483 4.93854C20.4088 5.81121 20.5546 6.60405 20.5388 7.38995C20.5208 8.27702 20.8105 8.87079 21.234 9.46275L21.2341 9.46291C22.0137 10.5521 22.3015 11.8203 22.2426 13.231L22.2426 13.231C22.1622 15.1622 21.7743 16.8722 20.6113 18.3042C19.8138 19.286 18.7794 19.9232 17.5403 20.3269L17.5403 20.3269C16.2971 20.732 14.9959 20.8543 13.6323 20.8467C13.1154 20.8438 12.6099 20.8473 12.1098 20.8507C11.2128 20.857 10.3337 20.8631 9.43967 20.8318C7.95407 20.7796 6.55327 20.5102 5.28794 19.843C3.76879 19.0418 2.76842 17.8247 2.24218 16.1722L2.24215 16.1721C1.88711 15.0575 1.73161 13.9187 1.75172 12.7426L1.75172 12.7426M20.1691 4.50412L1.75172 12.7426M9.42147 6.06337L9.42129 6.0634C9.10779 6.11816 8.67312 6.08139 8.33126 5.86042L8.33095 5.86022C6.95777 4.97168 5.56929 4.23276 4.03796 3.8029C4.01887 3.86767 3.99994 3.93144 3.98126 3.99435C3.83766 4.47812 3.70902 4.91146 3.63549 5.36537L9.42147 6.06337ZM9.42147 6.06337C10.6182 5.85405 11.8353 5.81525 13.075 5.87398M9.42147 6.06337L13.7669 5.9563M1.75172 12.7426C1.77427 11.4178 2.13888 10.2456 2.93001 9.22918L1.75172 12.7426ZM19.0679 19.0692L19.0678 19.0693C18.3239 19.7125 17.4403 19.9935 16.6532 20.1816L16.6531 20.1816C15.0962 20.5535 13.5244 20.6449 11.97 20.5792C10.431 20.6437 8.89069 20.5468 7.36302 20.1873L19.0679 19.0692ZM19.0679 19.0692C19.7642 18.467 20.2853 17.8786 20.568 17.1573C20.8536 16.4283 20.8581 15.661 20.7215 14.7778C20.6262 14.1608 20.4465 13.5665 20.1054 13.0463C19.7578 12.5161 19.2689 12.1032 18.6221 11.8163L18.622 11.8163C17.8827 11.4885 17.0574 11.3502 16.3138 11.3051L16.3138 11.3051C15.8151 11.275 15.217 11.2881 14.6745 11.2999C14.374 11.3065 14.0906 11.3127 13.8507 11.311C13.0195 11.3048 12.1868 11.281 11.3458 11.256C11.2988 11.2546 11.2517 11.2532 11.2047 11.2518C10.4122 11.2282 9.61188 11.2043 8.8107 11.1948L8.81067 11.1948C8.31268 11.1889 7.7909 11.2319 7.31387 11.2712C7.11781 11.2873 6.92932 11.3028 6.75313 11.3141C5.9555 11.3648 5.29574 11.6945 4.74137 12.1645L4.74131 12.1646C3.68119 13.0635 3.20184 14.1776 3.178 15.3019C3.15462 16.404 3.56823 17.4617 4.19196 18.3032L4.19198 18.3032M19.0679 19.0692L4.19198 18.3032M4.19198 18.3032C5.02838 19.4315 6.21173 19.9165 7.36292 20.1872L4.19198 18.3032ZM13.075 5.87398C13.2879 5.88408 13.5079 5.91606 13.7669 5.9563M13.075 5.87398L13.1105 5.12482L13.075 5.87398ZM13.7669 5.9563C13.7855 5.9592 13.8044 5.96215 13.8236 5.96513M13.7669 5.9563L13.8236 5.96513M13.8236 5.96513C14.0576 6.00165 14.3262 6.04358 14.599 6.06352L13.8236 5.96513ZM3.34569 8.49913C3.44821 8.20506 3.4794 7.90003 3.45388 7.56826L2.9301 9.22907C3.09101 9.0224 3.24539 8.78684 3.34569 8.49913ZM3.45387 7.56817C3.40142 6.88526 3.50688 6.16052 3.63547 5.36551L3.45387 7.56817Z" stroke="#252929" stroke-width="1.5"/>
<path fill-rule="evenodd" clip-rule="evenodd" d="M8.5 18C9.32843 18 10 17.1046 10 16C10 14.8954 9.32843 14 8.5 14C7.67157 14 7 14.8954 7 16C7 17.1046 7.67157 18 8.5 18ZM15.5 18C16.3284 18 17 17.1046 17 16C17 14.8954 16.3284 14 15.5 14C14.6716 14 14 14.8954 14 16C14 17.1046 14.6716 18 15.5 18Z" fill="#252929"/>
</svg>
