<svg width="24" height="25" viewBox="0 0 24 25" fill="none" xmlns="http://www.w3.org/2000/svg">
<path d="M9.5 9.5C9.5 8.11929 10.6193 7 12 7C13.3807 7 14.5 8.11929 14.5 9.5C14.5 10.8807 13.3807 12 12 12V12C11.7239 12 11.5 12.2239 11.5 12.5V13.5" stroke="#252929" stroke-width="1.5" stroke-linecap="round"/>
<path d="M12.5 16C12.5 16.5523 12.0523 17 11.5 17C10.9477 17 10.5 16.5523 10.5 16C10.5 15.4477 10.9477 15 11.5 15C12.0523 15 12.5 15.4477 12.5 16Z" fill="#252929"/>
<path d="M3 21H2.25C2.25 21.4142 2.58579 21.75 3 21.75V21ZM3.75 21V12H2.25V21H3.75ZM12 20.25H3V21.75H12V20.25ZM20.25 12C20.25 16.5563 16.5563 20.25 12 20.25V21.75C17.3848 21.75 21.75 17.3848 21.75 12H20.25ZM12 3.75C16.5563 3.75 20.25 7.44365 20.25 12H21.75C21.75 6.61522 17.3848 2.25 12 2.25V3.75ZM3.75 12C3.75 7.44365 7.44365 3.75 12 3.75V2.25C6.61522 2.25 2.25 6.61522 2.25 12H3.75Z" fill="#252929"/>
</svg>
