<svg width="24" height="24" viewBox="0 0 24 24" fill="none" xmlns="http://www.w3.org/2000/svg">
<path d="M3.00037 18.6667V4C3.00037 2.89543 3.8958 2 5.00037 2H19.0004C20.1049 2 21.0004 2.89543 21.0004 4V15.5556C21.0004 16.6601 20.1049 17.5556 19.0004 17.5556H4.98411C4.48026 17.5556 3.99499 17.7457 3.62529 18.088L3.00037 18.6667ZM3.00037 18.6667L3.00037 20.0267C3.00037 20.5764 3.22965 21.1012 3.63298 21.4746V21.4746C3.99773 21.8124 4.47652 22 4.97363 22H19.0166C19.5205 22 20.0057 21.8098 20.3754 21.4675L21.0004 20.8889" stroke="#252929" stroke-width="1.5" stroke-linecap="round" stroke-linejoin="round"/>
<path d="M9.5 7.5C9.5 6.11929 10.6193 5 12 5C13.3807 5 14.5 6.11929 14.5 7.5C14.5 8.88071 13.3807 10 12 10V10C11.7239 10 11.5 10.2239 11.5 10.5V11.5" stroke="#252929" stroke-width="1.5" stroke-linecap="round"/>
<path d="M12.5 14C12.5 14.5523 12.0523 15 11.5 15C10.9477 15 10.5 14.5523 10.5 14C10.5 13.4477 10.9477 13 11.5 13C12.0523 13 12.5 13.4477 12.5 14Z" fill="#252929"/>
</svg>
