<svg width="24" height="25" viewBox="0 0 24 25" fill="none" xmlns="http://www.w3.org/2000/svg">
<rect width="24" height="24" transform="translate(0 0.00195312)" fill="white"/>
<path d="M3.63039 6.62158C4.00478 6.24957 4.50239 6.00195 5 6.00195C6 6.00195 18 6.00195 19 6.00195C19.5 6.00195 20 6.25195 20.375 6.62695M3.63039 6.62158C3.2524 6.99717 3 7.49956 3 8.00195C3 9.00195 3 15.002 3 16.002C3 16.5043 3.2524 17.0067 3.63039 17.3823M3.63039 6.62158C3.63039 6.62158 7.13226 10.1235 9.01076 12.002M20.375 6.62695C20.75 7.00195 21 7.50195 21 8.00195C21 9.00195 21 15.002 21 16.002C21 17.002 20 18.002 19 18.002C18 18.002 6 18.002 5 18.002C4.50239 18.002 4.00478 17.7543 3.63039 17.3823M20.375 6.62695C20.375 6.62695 16.8773 10.1247 15 12.002M9.01076 12.002C9.46071 12.4519 9.81752 12.8087 10.0108 13.002C11.0108 14.002 13 14.002 14 13.002C14.1933 12.8086 14.5501 12.4518 15 12.002M9.01076 12.002L3.63039 17.3823M15 12.002L20.3804 17.3823" stroke="#252929" stroke-width="1.5" stroke-linejoin="round"/>
</svg>
