<svg width="24" height="24" viewBox="0 0 24 24" fill="none" xmlns="http://www.w3.org/2000/svg">
<path d="M19 11.5V7.82843C19 7.29799 18.7893 6.78929 18.4142 6.41421L15.5858 3.58579C15.2107 3.21071 14.702 3 14.1716 3H7C5.89543 3 5 3.89543 5 5L5 7.5C5 8.60457 5.89543 9.5 7 9.5H16M16 9.5L14 7.5M16 9.5L14 11.5" stroke="#252929" stroke-width="1.5" stroke-linecap="round" stroke-linejoin="round"/>
<path d="M8 15L7.46967 14.4697C7.32902 14.6103 7.25 14.8011 7.25 15C7.25 15.1989 7.32902 15.3897 7.46967 15.5303L8 15ZM9.46967 17.5303C9.76256 17.8232 10.2374 17.8232 10.5303 17.5303C10.8232 17.2374 10.8232 16.7625 10.5303 16.4697L9.46967 17.5303ZM10.5303 13.5303C10.8232 13.2374 10.8232 12.7625 10.5303 12.4697C10.2374 12.1768 9.76257 12.1768 9.46967 12.4697L10.5303 13.5303ZM5.75 13C5.75 12.5858 5.41421 12.25 5 12.25C4.58579 12.25 4.25 12.5858 4.25 13L5.75 13ZM7 21.75L17 21.75L17 20.25L7 20.25L7 21.75ZM19.75 19L19.75 17L18.25 17L18.25 19L19.75 19ZM17 14.25L8 14.25L8 15.75L17 15.75L17 14.25ZM7.46967 15.5303L9.46967 17.5303L10.5303 16.4697L8.53033 14.4697L7.46967 15.5303ZM8.53033 15.5303L10.5303 13.5303L9.46967 12.4697L7.46967 14.4697L8.53033 15.5303ZM5.75 19L5.75 13L4.25 13L4.25 19L5.75 19ZM19.75 17C19.75 15.4812 18.5188 14.25 17 14.25L17 15.75C17.6904 15.75 18.25 16.3096 18.25 17L19.75 17ZM17 21.75C18.5188 21.75 19.75 20.5188 19.75 19L18.25 19C18.25 19.6903 17.6904 20.25 17 20.25L17 21.75ZM7 20.25C6.30964 20.25 5.75 19.6904 5.75 19L4.25 19C4.25 20.5188 5.48122 21.75 7 21.75L7 20.25Z" fill="#252929"/>
</svg>
