<svg width="24" height="24" viewBox="0 0 24 24" fill="none" xmlns="http://www.w3.org/2000/svg">
<path fill-rule="evenodd" clip-rule="evenodd" d="M6.5 13C7.32843 13 8 12.3284 8 11.5C8 10.6716 7.32843 10 6.5 10C5.67157 10 5 10.6716 5 11.5C5 12.3284 5.67157 13 6.5 13ZM13.5 11.5C13.5 12.3284 12.8284 13 12 13C11.1716 13 10.5 12.3284 10.5 11.5C10.5 10.6716 11.1716 10 12 10C12.8284 10 13.5 10.6716 13.5 11.5ZM19 11.5C19 12.3284 18.3284 13 17.5 13C16.6716 13 16 12.3284 16 11.5C16 10.6716 16.6716 10 17.5 10C18.3284 10 19 10.6716 19 11.5Z" fill="#252929"/>
</svg>
