<svg width="24" height="25" viewBox="0 0 24 25" fill="none" xmlns="http://www.w3.org/2000/svg">
<circle cx="12" cy="18.002" r="1" fill="#252929"/>
<path d="M7 14.502C7 14.502 7.35787 14.0519 8 13.5337M17 14.502C17 14.502 16.1511 13.4345 14.7224 12.6946" stroke="#252929" stroke-width="1.5" stroke-linecap="round"/>
<path d="M3 10.002C3 10.002 6.57831 6.00195 12 6.00195M21 10.002C21 10.002 19.9552 8.83406 18.1394 7.76041" stroke="#252929" stroke-width="1.5" stroke-linecap="round"/>
<path d="M17.6449 3.88486C17.8564 3.52869 17.7391 3.06853 17.3829 2.85706C17.0267 2.64559 16.5666 2.76289 16.3551 3.11905L17.6449 3.88486ZM6.85511 19.119C6.64364 19.4752 6.76093 19.9354 7.1171 20.1468C7.47326 20.3583 7.93342 20.241 8.14489 19.8849L6.85511 19.119ZM16.3551 3.11905L6.85511 19.119L8.14489 19.8849L17.6449 3.88486L16.3551 3.11905Z" fill="#252929"/>
</svg>
