<svg width="24" height="24" viewBox="0 0 24 24" fill="none" xmlns="http://www.w3.org/2000/svg">
<path d="M9 19.5C9 20.3284 8.32843 21 7.5 21C6.67157 21 6 20.3284 6 19.5C6 18.6716 6.67157 18 7.5 18C8.32843 18 9 18.6716 9 19.5Z" fill="#252929"/>
<path d="M20 19.5C20 20.3284 19.3284 21 18.5 21C17.6716 21 17 20.3284 17 19.5C17 18.6716 17.6716 18 18.5 18C19.3284 18 20 18.6716 20 19.5Z" fill="#252929"/>
<path d="M3 4H3.97983C4.87824 4 5.66641 4.59907 5.90686 5.46471L6.05556 6M8 13H7.5C6.67157 13 6 13.6716 6 14.5V14.5C6 15.3284 6.67157 16 7.5 16H19M8 13H18L21 6H6.05556M8 13L6.05556 6" stroke="#252929" stroke-width="1.5" stroke-linecap="round" stroke-linejoin="round"/>
</svg>
