<svg width="24" height="24" viewBox="0 0 24 24" fill="none" xmlns="http://www.w3.org/2000/svg">
<path d="M16.0004 6L20.0004 6.00067" stroke="#252929" stroke-width="1.5" stroke-linecap="round"/>
<path d="M4.00037 6H8.00037" stroke="#252929" stroke-width="1.5" stroke-linecap="round"/>
<path d="M13.0004 12H20.0004" stroke="#252929" stroke-width="1.5" stroke-linecap="round"/>
<path d="M4.00037 12H5.00037" stroke="#252929" stroke-width="1.5" stroke-linecap="round"/>
<path d="M19.0004 18H20.0004" stroke="#252929" stroke-width="1.5" stroke-linecap="round"/>
<path d="M4.00037 18H11.0004" stroke="#252929" stroke-width="1.5" stroke-linecap="round"/>
<path d="M13.5004 6C13.5004 6.82843 12.8288 7.5 12.0004 7.5C11.1719 7.5 10.5004 6.82843 10.5004 6C10.5004 5.17157 11.1719 4.5 12.0004 4.5C12.8288 4.5 13.5004 5.17157 13.5004 6Z" fill="#252929"/>
<path d="M10.5004 12C10.5004 12.8284 9.82879 13.5 9.00037 13.5C8.17194 13.5 7.50037 12.8284 7.50037 12C7.50037 11.1716 8.17194 10.5 9.00037 10.5C9.82879 10.5 10.5004 11.1716 10.5004 12Z" fill="#252929"/>
<path d="M16.5004 18C16.5004 18.8284 15.8288 19.5 15.0004 19.5C14.1719 19.5 13.5004 18.8284 13.5004 18C13.5004 17.1716 14.1719 16.5 15.0004 16.5C15.8288 16.5 16.5004 17.1716 16.5004 18Z" fill="#252929"/>
</svg>
