<svg width="24" height="25" viewBox="0 0 24 25" fill="none" xmlns="http://www.w3.org/2000/svg">
<rect y="0.00201416" width="24" height="24" fill="white"/>
<path d="M6 17.002H3C2.44772 17.002 2 16.5543 2 16.002V8.00201C2 7.44973 2.44772 7.00201 3 7.00201H5.5M6 17.002V21.002C6 21.5543 6.44772 22.002 7 22.002H17C17.5523 22.002 18 21.5543 18 21.002V17.002M6 17.002V13.502M18 17.002H21C21.5523 17.002 22 16.5543 22 16.002V8.00201C22 7.44973 21.5523 7.00201 21 7.00201H18.5M18 17.002V13.502M5.5 7.00201V3.00201C5.5 2.44973 5.94772 2.00201 6.5 2.00201H17.5C18.0523 2.00201 18.5 2.44973 18.5 3.00201V7.00201M5.5 7.00201H18.5M6 13.502H18M6 13.502H5M18 13.502H19M5 10.002H7M9 17.002H15" stroke="#252929" stroke-width="1.5" stroke-linecap="round" stroke-linejoin="round"/>
</svg>
