<svg width="24" height="24" viewBox="0 0 24 24" fill="none" xmlns="http://www.w3.org/2000/svg">
<path d="M3 8.5L4.86803 4.29693C4.94828 4.11637 5.12734 4 5.32494 4H18.6751C18.8727 4 19.0517 4.11637 19.132 4.29693L21 8.5M3 8.5V19.5C3 19.7761 3.22386 20 3.5 20H20.5C20.7761 20 21 19.7761 21 19.5V8.5M3 8.5H9.5M21 8.5H14.5M9.5 8.5V14.5L11.7428 13.1543C11.9011 13.0593 12.0989 13.0593 12.2572 13.1543L14.5 14.5V8.5M9.5 8.5H14.5" stroke="#252929" stroke-width="1.5" stroke-linecap="round" stroke-linejoin="round"/>
</svg>
