<svg width="24" height="24" viewBox="0 0 24 24" fill="none" xmlns="http://www.w3.org/2000/svg">
<path d="M11.5004 21.75C11.9146 21.75 12.2504 21.4142 12.2504 21C12.2504 20.5858 11.9146 20.25 11.5004 20.25V21.75ZM13.0004 14.75C13.4146 14.75 13.7504 14.4142 13.7504 14C13.7504 13.5858 13.4146 13.25 13.0004 13.25V14.75ZM9.82963 14.75H11.5004V13.25H9.82963V14.75ZM11.5004 20.25H3.1711V21.75H11.5004V20.25ZM11.5004 14.75H13.0004V13.25H11.5004V14.75ZM3.75037 20.8293C3.75037 17.4718 6.47215 14.75 9.82963 14.75V13.25C5.64372 13.25 2.25037 16.6434 2.25037 20.8293H3.75037ZM2.25037 20.8293C2.25037 21.3378 2.66259 21.75 3.1711 21.75V20.25C3.49102 20.25 3.75037 20.5093 3.75037 20.8293H2.25037Z" fill="#252929"/>
<path d="M21.5307 16.5303C21.8236 16.2374 21.8236 15.7626 21.5307 15.4697C21.2378 15.1768 20.7629 15.1768 20.47 15.4697L21.5307 16.5303ZM15.47 20.4697C15.1771 20.7626 15.1771 21.2374 15.47 21.5303C15.7629 21.8232 16.2378 21.8232 16.5307 21.5303L15.47 20.4697ZM20.47 15.4697L15.47 20.4697L16.5307 21.5303L21.5307 16.5303L20.47 15.4697Z" fill="#252929"/>
<path d="M20.47 21.5303C20.7629 21.8232 21.2378 21.8232 21.5307 21.5303C21.8236 21.2374 21.8236 20.7626 21.5307 20.4697L20.47 21.5303ZM16.5307 15.4697C16.2378 15.1768 15.7629 15.1768 15.47 15.4697C15.1771 15.7626 15.1771 16.2374 15.47 16.5303L16.5307 15.4697ZM21.5307 20.4697L16.5307 15.4697L15.47 16.5303L20.47 21.5303L21.5307 20.4697Z" fill="#252929"/>
<circle cx="12" cy="7" r="4" stroke="#252929" stroke-width="1.5"/>
</svg>
