<svg width="24" height="24" viewBox="0 0 24 24" fill="none" xmlns="http://www.w3.org/2000/svg">
<path d="M3.0017 13.522L3.00171 13.522C3.30869 13.6511 3.74119 13.8207 4.35023 14.0471C4.70986 14.1807 5.00898 14.4641 5.16347 14.8382C5.31614 15.208 5.31064 15.6266 5.15475 15.9912C4.89178 16.6063 4.71292 17.0456 4.59329 17.3611C4.4167 17.8268 4.54367 18.3353 4.87794 18.6699L5.37407 19.1664L5.90461 18.6363L5.37407 19.1664C5.71777 19.5104 6.24234 19.6327 6.71343 19.4413C7.02109 19.3163 7.44962 19.1315 8.04719 18.8585C8.40345 18.6957 8.80943 18.6863 9.17278 18.8375C9.532 18.987 9.82066 19.2826 9.9703 19.6571C10.2195 20.281 10.4033 20.7186 10.5411 21.0253C10.7454 21.4802 11.1953 21.75 11.6683 21.75H12.3966C12.8811 21.75 13.3398 21.4669 13.5369 20.9958C13.6628 20.6949 13.8282 20.2721 14.0485 19.6783C14.1942 19.2857 14.4908 18.9753 14.8634 18.8212C15.2146 18.6759 15.6058 18.68 15.9537 18.8282C16.6017 19.1042 17.1124 19.3101 17.4862 19.4463C17.6896 19.5204 17.9028 19.5277 18.1004 19.4778L18.072 19.6293L18.0733 19.6295L18.1017 19.4775C18.2842 19.4312 18.4533 19.3362 18.5891 19.2001L19.1699 18.6184C19.5125 18.2753 19.6358 17.7508 19.4422 17.2788C19.318 16.9761 19.1362 16.5602 18.8734 15.9867C18.7037 15.6161 18.6918 15.1849 18.8477 14.8039C18.9969 14.4391 19.2839 14.1593 19.6311 14.0204C20.2687 13.7652 20.7152 13.5772 21.0276 13.4362C21.4816 13.2313 21.75 12.7819 21.75 12.3102V11.6187C21.75 11.1346 21.4672 10.6759 20.9963 10.4788C20.6895 10.3504 20.2576 10.1818 19.6498 9.95694C19.288 9.82309 18.9871 9.53828 18.832 9.16199C18.6792 8.79136 18.6847 8.37194 18.8409 8.00652C19.1041 7.39069 19.2831 6.95103 19.4028 6.63544C19.5796 6.1695 19.4524 5.6606 19.1177 5.32606L18.6233 4.83191C18.2802 4.48894 17.7568 4.36638 17.2862 4.55697C16.9779 4.68179 16.5479 4.86688 15.9472 5.14107C15.5921 5.30312 15.1878 5.31305 14.8253 5.16353C14.4641 5.01453 14.1737 4.71803 14.0234 4.34176C13.7746 3.71871 13.5911 3.28159 13.4535 2.97504C13.2493 2.52 12.7992 2.25 12.3261 2.25H11.5998C11.1161 2.25 10.6576 2.53219 10.4602 3.00283C10.3337 3.30445 10.1677 3.72858 9.94714 4.32456C9.80238 4.71562 9.50746 5.02524 9.13651 5.17933C8.78631 5.32479 8.39612 5.32102 8.04905 5.17344C7.39972 4.89735 6.88772 4.69161 6.51281 4.55548L6.25684 5.26045L6.51281 4.55548C6.12022 4.41293 5.69131 4.51896 5.40777 4.80338L4.82812 5.38482C4.48635 5.72765 4.36304 6.25149 4.55628 6.7231C4.68016 7.02545 4.86162 7.44045 5.12381 8.01218C5.29442 8.38422 5.3059 8.81728 5.14836 9.19944C4.99872 9.56245 4.71243 9.84079 4.3665 9.97917C3.73158 10.2331 3.28665 10.4199 2.97495 10.5598C2.51988 10.7641 2.25 11.2141 2.25 11.6872V12.3829C2.25 12.8662 2.53184 13.3243 3.0017 13.522Z" stroke="#252929" stroke-width="1.5"/>
<path d="M13.5 12C13.5 12.8284 12.8284 13.5 12 13.5C11.1716 13.5 10.5 12.8284 10.5 12C10.5 11.1716 11.1716 10.5 12 10.5C12.8284 10.5 13.5 11.1716 13.5 12Z" fill="#252929"/>
</svg>
