<svg width="24" height="24" viewBox="0 0 24 24" fill="none" xmlns="http://www.w3.org/2000/svg">
<path d="M4.16253 17.1351C6.39834 15.0293 8.09732 13.3202 9.38825 11.856M13.3517 4.5H16.595M13.3517 4.5H9.56793M13.3517 4.5C13.0864 6.95322 12.217 8.64768 9.38825 11.856M2.00037 4.5H9.56793M9.56793 4.5V3M9.38825 11.856C10.4887 12.9649 11.1242 13.5119 12.2706 14.4324M9.38825 11.856C8.26012 10.7193 6.50037 8.5 6.32469 7.40541" stroke="#252929" stroke-width="1.5" stroke-linecap="round" stroke-linejoin="round"/>
<path d="M13.3517 20.9189L14.7931 17.1351M22.0003 20.9189L20.5589 17.1351M14.7931 17.1351L17.676 9.56757L20.5589 17.1351M14.7931 17.1351H20.5589" stroke="#252929" stroke-width="1.5" stroke-linecap="round" stroke-linejoin="round"/>
</svg>
