<svg width="24" height="25" viewBox="0 0 24 25" fill="none" xmlns="http://www.w3.org/2000/svg">
<mask id="path-1-inside-1_1_1056" fill="white">
<path d="M21 12C21 16.9706 16.9706 21 12 21C10.4508 21 8.99307 20.6086 7.72024 19.9193L3.77671 20.8222C3.4173 20.9045 3.09548 20.5827 3.17771 20.2233L4.08011 16.2786C3.39118 15.0061 3 13.5487 3 12C3 7.02944 7.02944 3 12 3C16.9706 3 21 7.02944 21 12Z"/>
</mask>
<path d="M12 21L11.4697 21.5303C11.7626 21.8232 12.2374 21.8232 12.5303 21.5303L12 21ZM12 3L12.5303 2.46967C12.2374 2.17678 11.7626 2.17678 11.4697 2.46967L12 3ZM11.4697 2.46967C8.32497 5.61437 7.24942 9.06521 7.25 12.0001L8.75 11.9999C8.7495 9.45135 9.67503 6.38563 12.5303 3.53033L11.4697 2.46967ZM7.25 12.0001C7.25058 14.9337 8.32482 18.3855 11.4697 21.5303L12.5303 20.4697C9.67518 17.6145 8.7505 14.5479 8.75 11.9999L7.25 12.0001ZM3 12.75H8V11.25H3V12.75ZM11.4697 3.53033C14.3172 6.37785 15.196 9.48217 15.2502 12.016L16.7498 11.984C16.6883 9.11042 15.6828 5.62215 12.5303 2.46967L11.4697 3.53033ZM15.2502 12.016C15.3038 14.5226 14.3319 17.6075 11.4697 20.4697L12.5303 21.5303C15.6681 18.3925 16.8126 14.9181 16.7498 11.984L15.2502 12.016ZM8 12.75H16V11.25H8V12.75ZM16 12.75H21V11.25H16V12.75ZM4.08011 16.2786L5.54234 16.6131C5.62363 16.2578 5.57275 15.885 5.39921 15.5645L4.08011 16.2786ZM7.72024 19.9193L8.43456 18.6003C8.11389 18.4266 7.74094 18.3757 7.38546 18.4571L7.72024 19.9193ZM3.77671 20.8222L3.44193 19.36L3.77671 20.8222ZM3.17771 20.2233L1.71548 19.8888L3.17771 20.2233ZM19.5 12C19.5 16.1421 16.1421 19.5 12 19.5V22.5C17.799 22.5 22.5 17.799 22.5 12H19.5ZM4.5 12C4.5 7.85786 7.85786 4.5 12 4.5V1.5C6.20101 1.5 1.5 6.20101 1.5 12H4.5ZM12 4.5C16.1421 4.5 19.5 7.85786 19.5 12H22.5C22.5 6.20101 17.799 1.5 12 1.5V4.5ZM5.39921 15.5645C4.82605 14.5058 4.5 13.2932 4.5 12H1.5C1.5 13.8042 1.95631 15.5063 2.76102 16.9927L5.39921 15.5645ZM12 19.5C10.7064 19.5 9.4935 19.1738 8.43456 18.6003L7.00592 21.2383C8.49264 22.0434 10.1952 22.5 12 22.5V19.5ZM7.38546 18.4571L3.44193 19.36L4.11148 22.2843L8.05501 21.3814L7.38546 18.4571ZM4.63993 20.5578L5.54234 16.6131L2.61789 15.9441L1.71548 19.8888L4.63993 20.5578ZM3.44193 19.36C4.16075 19.1954 4.80438 19.8389 4.63993 20.5578L1.71548 19.8888C1.38658 21.3265 2.67384 22.6135 4.11148 22.2843L3.44193 19.36Z" fill="#252929" mask="url(#path-1-inside-1_1_1056)"/>
</svg>
